<svg width="30" height="30" viewBox="0 0 30 30" fill="none" xmlns="http://www.w3.org/2000/svg">
<path d="M23.9999 12.431V11.4772C23.9999 6.24276 19.968 2 15 2C10.032 2 6.00006 6.24276 6.00006 11.4772V12.431C6.00167 13.5696 5.68146 14.6847 5.0774 15.6442L3.60008 17.978C2.25209 20.1089 3.28141 23.0055 5.62673 23.6792C11.7551 25.4403 18.2449 25.4403 24.3733 23.6792C26.7186 23.0055 27.7479 20.1089 26.3999 17.9794L24.9226 15.6456C24.3181 14.6862 23.9974 13.5711 23.9986 12.4324L23.9999 12.431Z" stroke="#58534E"/>
<path d="M10.5 25C11.155 26.748 12.922 28 15 28C17.078 28 18.845 26.748 19.5 25" stroke="#58534E" stroke-linecap="round"/>
</svg>
