<svg width="186" height="183" viewBox="0 0 186 183" fill="none" xmlns="http://www.w3.org/2000/svg">
<path d="M0 7.88793C0 3.53155 3.52238 0 7.86745 0H163.348C167.496 0 170.932 3.22886 171.199 7.379L181.983 174.603C182.277 179.15 178.677 183 174.132 183H7.86745C3.52238 183 0 179.468 0 175.112V7.88793Z" fill="url(#paint0_linear_791_5044)"/>
<path d="M0 7.88288C0 3.52928 3.52948 0 7.8833 0L17.7914 0C21.9662 0 25.4172 3.2546 25.6612 7.42206L34.9862 166.656C35.2514 171.183 31.6514 175 27.1164 175H7.8833C3.52947 175 0 171.471 0 167.117L0 7.88288Z" fill="url(#paint1_linear_791_5044)" fill-opacity="0.9"/>
<path d="M164.833 -4.57174e-07C168.456 -2.87855e-07 171.614 2.46551 172.493 5.97998L186 60L15.4493 60L2.26421 9.90387C0.94667 4.89794 4.72299 -7.93951e-06 9.9001 -7.69757e-06L164.833 -4.57174e-07Z" fill="#BDB7B2"/>
<path d="M96 180.634C96 181.941 94.8807 183 93.5 183C92.1193 183 91 181.941 91 180.634L91 2.36638C91 1.05946 92.1193 -1.69631e-07 93.5 -1.09278e-07C94.8807 -4.89256e-08 96 1.05946 96 2.36638L96 180.634Z" fill="#827A74"/>
<path d="M2.36638 106C1.05946 106 9.7851e-08 104.881 2.18556e-07 103.5C3.39262e-07 102.119 1.05946 101 2.36638 101L180.634 101C181.941 101 183 102.119 183 103.5C183 104.881 181.941 106 180.634 106L2.36638 106Z" fill="#827A74"/>
<g filter="url(#filter0_d_791_5044)">
<path d="M50 43H148V140H50V43Z" fill="#FFF3D0"/>
</g>
<path d="M50 43H148V69H50V43Z" fill="#FAE8B6"/>
<path d="M155.134 59.5769C156.366 60.013 157.011 61.3655 156.575 62.5974L154.344 61.809C156.522 62.5794 156.574 62.5979 156.575 62.599L156.575 62.6005C156.574 62.6017 156.574 62.6035 156.573 62.6051C156.572 62.6083 156.57 62.6123 156.568 62.6173C156.565 62.6275 156.56 62.6415 156.554 62.6587C156.541 62.6933 156.523 62.7423 156.5 62.8041C156.454 62.9282 156.386 63.1061 156.298 63.3304C156.122 63.7788 155.861 64.4166 155.518 65.1913C154.833 66.7372 153.81 68.8478 152.456 71.1073C149.803 75.5362 145.646 80.9305 139.943 83.4178C134.1 85.9658 129.256 85.5717 125.123 83.1646C121.208 80.8848 118.175 76.925 115.476 72.9804C112.667 68.8743 110.195 64.7569 107.199 61.2852C105.425 59.2301 103.567 57.532 101.512 56.3281C91.473 71.9489 78.4618 87.0294 58.911 91.5362C53.2458 92.842 48.4053 92.0341 44.6613 89.6818C40.9459 87.3472 38.5465 83.6394 37.4485 79.564C35.2735 71.4909 38.0808 61.4152 46.6845 56.2405C52.9479 52.4735 62.667 50.2951 72.1728 49.345C74.9591 49.0665 77.7654 48.8925 80.5064 48.816C73.136 45.4777 66.3944 41.2213 60.585 36.9153C53.549 31.7002 47.7733 26.3439 43.757 22.2935C41.7473 20.2669 40.174 18.5624 39.0989 17.3601C38.5613 16.7588 38.1471 16.2822 37.8659 15.9537C37.7257 15.7897 37.6182 15.6625 37.5447 15.5748C37.5081 15.5312 37.48 15.4968 37.4603 15.4731C37.4505 15.4613 37.4417 15.4516 37.4362 15.445C37.4336 15.4418 37.4318 15.4391 37.4302 15.4371L37.4287 15.434C37.4351 15.4274 37.5447 15.3361 39.2546 13.9299L37.4272 15.4325C36.5971 14.423 36.7427 12.9325 37.752 12.1025C38.7612 11.2726 40.2519 11.417 41.0821 12.4258L41.082 12.4273C41.0826 12.428 41.0838 12.4289 41.0851 12.4305C41.0882 12.4343 41.0942 12.4403 41.1017 12.4493C41.1165 12.4672 41.1392 12.4958 41.171 12.5337C41.2346 12.6096 41.3321 12.7247 41.4621 12.8766C41.7221 13.1804 42.1136 13.6303 42.6271 14.2047C43.6544 15.3536 45.1714 16.9985 47.1174 18.9609C51.0129 22.8894 56.6082 28.0749 63.404 33.112C73.6227 40.6862 86.3307 47.755 99.941 49.923C104.198 42.9606 107.971 35.9537 111.679 29.5271C115.83 22.3332 119.931 15.8097 124.402 11.4653C129.416 6.59433 136.718 4.78596 143.047 6.2911C149.522 7.83095 154.956 12.8495 155.861 21.3058C156.28 25.2184 154.776 29.165 152.354 32.753C149.915 36.3672 146.396 39.8457 142.355 42.9218C134.302 49.0513 123.768 53.8883 114.556 54.9722C112.364 55.23 110.186 55.3437 108.028 55.3326C109.004 56.2305 109.919 57.193 110.781 58.1924C114.009 61.9318 116.79 66.5193 119.382 70.3081C122.085 74.2584 124.602 77.3846 127.503 79.0744C130.185 80.6365 133.425 81.0962 138.05 79.0792C142.362 77.199 145.88 72.8741 148.396 68.6749C149.627 66.6206 150.563 64.6898 151.191 63.2732C151.504 62.5666 151.739 61.9919 151.894 61.5989C151.971 61.4028 152.028 61.2525 152.065 61.1537C152.083 61.1045 152.096 61.0676 152.104 61.045L152.114 61.0175L152.114 61.019C152.55 59.7871 153.902 59.141 155.134 59.5769ZM96.9919 54.6007C91.0112 53.3952 81.8232 53.1374 72.6438 54.0548C63.3278 54.986 54.467 57.0833 49.1245 60.2964C42.5709 64.238 40.3157 72.017 42.0168 78.3323C42.8571 81.4512 44.6309 84.0731 47.179 85.6742C49.6983 87.2572 53.2125 87.9927 57.8465 86.9247C75.1969 82.9254 87.2089 69.634 96.9919 54.6007ZM148.431 30.1059C150.52 27.0102 151.41 24.1845 151.156 21.8092C150.477 15.4716 146.6 12.0007 141.951 10.8951C137.156 9.75504 131.522 11.1449 127.699 14.859C123.76 18.6861 119.95 24.6614 115.778 31.8924C112.488 37.5944 108.983 44.0492 105.119 50.4992C108.053 50.683 111.019 50.6224 114.001 50.2716C122.183 49.3091 131.937 44.9024 139.487 39.1555C143.247 36.2935 146.359 33.1754 148.431 30.1059Z" fill="#827A74"/>
<defs>
<filter id="filter0_d_791_5044" x="46" y="43" width="106" height="105" filterUnits="userSpaceOnUse" color-interpolation-filters="sRGB">
<feFlood flood-opacity="0" result="BackgroundImageFix"/>
<feColorMatrix in="SourceAlpha" type="matrix" values="0 0 0 0 0 0 0 0 0 0 0 0 0 0 0 0 0 0 127 0" result="hardAlpha"/>
<feOffset dy="4"/>
<feGaussianBlur stdDeviation="2"/>
<feComposite in2="hardAlpha" operator="out"/>
<feColorMatrix type="matrix" values="0 0 0 0 0 0 0 0 0 0 0 0 0 0 0 0 0 0 0.25 0"/>
<feBlend mode="normal" in2="BackgroundImageFix" result="effect1_dropShadow_791_5044"/>
<feBlend mode="normal" in="SourceGraphic" in2="effect1_dropShadow_791_5044" result="shape"/>
</filter>
<linearGradient id="paint0_linear_791_5044" x1="91.2624" y1="0" x2="91.2624" y2="104.121" gradientUnits="userSpaceOnUse">
<stop stop-color="#94897F"/>
<stop offset="1" stop-color="#BDB7B2"/>
</linearGradient>
<linearGradient id="paint1_linear_791_5044" x1="17.7374" y1="0" x2="17.7374" y2="175" gradientUnits="userSpaceOnUse">
<stop stop-color="#8C827A"/>
<stop offset="1" stop-color="#B3A9A1"/>
</linearGradient>
</defs>
</svg>
