<svg width="186" height="184" viewBox="0 0 186 184" fill="none" xmlns="http://www.w3.org/2000/svg">
<path d="M0 8.75756C0 4.40118 3.52238 0.869629 7.86745 0.869629L163.348 0.869629C167.496 0.869629 170.932 4.09849 171.199 8.24863L181.983 175.473C182.277 180.02 178.677 183.87 174.132 183.87H7.86745C3.52238 183.87 0 180.338 0 175.982L0 8.75756Z" fill="url(#paint0_linear_791_5046)"/>
<path d="M0 8.75251C0 4.39891 3.52948 0.869629 7.8833 0.869629L17.7914 0.869629C21.9662 0.869629 25.4172 4.12423 25.6612 8.29169L34.9862 167.526C35.2514 172.053 31.6514 175.87 27.1164 175.87H7.8833C3.52947 175.87 0 172.34 0 167.987L0 8.75251Z" fill="url(#paint1_linear_791_5046)" fill-opacity="0.9"/>
<path d="M164.833 0.869628C168.456 0.869629 171.614 3.33514 172.493 6.84961L186 60.8696L15.4493 60.8696L2.26421 10.7735C0.94667 5.76757 4.72299 0.869621 9.9001 0.869621L164.833 0.869628Z" fill="#BDB7B2"/>
<path d="M96 181.503C96 182.81 94.8807 183.87 93.5 183.87C92.1193 183.87 91 182.81 91 181.503L91 3.23601C91 1.92909 92.1193 0.869629 93.5 0.869629C94.8807 0.869629 96 1.92909 96 3.23601L96 181.503Z" fill="#827A74"/>
<path d="M2.36638 106.87C1.05946 106.87 9.7851e-08 105.75 2.18556e-07 104.37C3.39262e-07 102.989 1.05946 101.87 2.36638 101.87L180.634 101.87C181.941 101.87 183 102.989 183 104.37C183 105.75 181.941 106.87 180.634 106.87L2.36638 106.87Z" fill="#827A74"/>
<g filter="url(#filter0_d_791_5046)">
<path d="M50 43.8696H148V140.87H50V43.8696Z" fill="#FFF3D0"/>
</g>
<path d="M50 43.8696H148V69.8696H50V43.8696Z" fill="#FAE8B6"/>
<path d="M151.034 73.8368C152.13 74.5487 152.441 76.0145 151.729 77.1104L149.745 75.8224C151.681 77.0804 151.728 77.1106 151.729 77.1119L151.728 77.1133C151.728 77.1144 151.727 77.116 151.726 77.1174C151.724 77.1203 151.721 77.1238 151.718 77.1282C151.712 77.1372 151.704 77.1498 151.694 77.165C151.674 77.1957 151.645 77.2391 151.608 77.2938C151.534 77.4037 151.426 77.5608 151.288 77.7583C151.012 78.1531 150.61 78.7123 150.095 79.3852C149.067 80.7282 147.58 82.5414 145.735 84.4217C142.12 88.1076 136.817 92.3808 130.691 93.466C124.414 94.5776 119.797 93.0622 116.34 89.7555C113.067 86.6237 111.044 82.0647 109.342 77.5986C107.571 72.9496 106.129 68.3684 104.028 64.2924C102.783 61.8796 101.373 59.7941 99.6569 58.1433C86.2448 70.9847 70.0688 82.6058 50.0062 82.4177C44.1927 82.3631 39.6752 80.446 36.5848 77.2837C33.518 74.1453 32.0519 69.9793 31.937 65.7601C31.7093 57.4023 36.7941 48.262 46.3691 45.2418C53.3395 43.0433 63.2986 43.1972 72.7632 44.4954C75.5373 44.8759 78.3065 45.3628 80.9895 45.9291C74.6036 40.9605 69.0438 35.2461 64.4019 29.7014C58.7799 22.986 54.4163 16.428 51.458 11.551C49.9778 9.11073 48.8466 7.08575 48.0823 5.66539C47.7001 4.95506 47.4088 4.39485 47.2122 4.00971C47.1142 3.81751 47.0395 3.66873 46.9885 3.5663C46.9631 3.51528 46.9438 3.4753 46.9302 3.44768C46.9234 3.43385 46.9171 3.42241 46.9133 3.41463C46.9115 3.41099 46.9104 3.40789 46.9093 3.40563L46.9086 3.40226C46.9164 3.39733 47.0442 3.33416 49.0355 2.36662L46.9075 3.40038C46.3364 2.22491 46.8263 0.809719 48.0017 0.238574C49.1769 -0.332346 50.5925 0.156501 51.1639 1.33137L51.1635 1.33286C51.1639 1.33365 51.1649 1.3348 51.1657 1.33661C51.1679 1.34106 51.1724 1.34832 51.1775 1.35877C51.1878 1.37967 51.2031 1.41284 51.2251 1.45712C51.2693 1.54579 51.3372 1.68049 51.428 1.85848C51.6098 2.21472 51.8853 2.74368 52.2503 3.42216C52.9806 4.77935 54.0711 6.73328 55.5044 9.09626C58.3737 13.8265 62.6018 20.1763 68.0319 26.6624C76.197 36.4155 86.9005 46.259 99.6269 51.5485C105.393 45.7741 110.7 39.8434 115.808 34.4616C121.525 28.4373 127.037 23.0531 132.4 19.8743C138.414 16.3103 145.936 16.2589 151.738 19.2017C157.673 22.2125 161.784 28.3623 160.687 36.796C160.18 40.698 157.795 44.1838 154.602 47.1063C151.385 50.05 147.15 52.6096 142.502 54.6558C133.24 58.7331 121.867 60.9737 112.656 59.8741C110.466 59.6125 108.321 59.2139 106.225 58.6986C106.964 59.7997 107.629 60.9494 108.234 62.1227C110.498 66.513 112.13 71.6237 113.765 75.9134C115.469 80.386 117.185 84.014 119.611 86.335C121.854 88.4809 124.896 89.6852 129.865 88.8053C134.496 87.985 138.928 84.6023 142.356 81.1077C144.033 79.3981 145.395 77.7395 146.336 76.5089C146.806 75.895 147.169 75.3912 147.411 75.0453C147.532 74.8726 147.623 74.7399 147.682 74.6525C147.711 74.6089 147.732 74.576 147.745 74.5559L147.761 74.5314L147.761 74.5329C148.472 73.4371 149.938 73.125 151.034 73.8368ZM95.666 55.4072C90.1329 52.8371 81.2597 50.4386 72.1201 49.1849C62.8446 47.9126 53.739 47.8805 47.7934 49.7557C40.5 52.0561 36.4889 59.0924 36.6666 65.6304C36.7546 68.8593 37.8663 71.8233 39.9696 73.9756C42.0491 76.1037 45.294 77.6403 50.0492 77.6852C67.8538 77.8524 82.64 67.7371 95.666 55.4072ZM151.406 43.6153C154.161 41.0938 155.686 38.5543 155.994 36.1854C156.816 29.8648 153.858 25.5837 149.596 23.422C145.201 21.1928 139.397 21.2269 134.812 23.9446C130.088 26.7449 124.987 31.664 119.24 37.7194C114.708 42.4943 109.792 47.9511 104.526 53.319C107.336 54.1836 110.234 54.818 113.216 55.1741C121.396 56.1508 131.91 54.1463 140.594 50.3235C144.919 48.4198 148.674 46.1154 151.406 43.6153Z" fill="#827A74"/>
<defs>
<filter id="filter0_d_791_5046" x="46" y="43.8696" width="106" height="105" filterUnits="userSpaceOnUse" color-interpolation-filters="sRGB">
<feFlood flood-opacity="0" result="BackgroundImageFix"/>
<feColorMatrix in="SourceAlpha" type="matrix" values="0 0 0 0 0 0 0 0 0 0 0 0 0 0 0 0 0 0 127 0" result="hardAlpha"/>
<feOffset dy="4"/>
<feGaussianBlur stdDeviation="2"/>
<feComposite in2="hardAlpha" operator="out"/>
<feColorMatrix type="matrix" values="0 0 0 0 0 0 0 0 0 0 0 0 0 0 0 0 0 0 0.25 0"/>
<feBlend mode="normal" in2="BackgroundImageFix" result="effect1_dropShadow_791_5046"/>
<feBlend mode="normal" in="SourceGraphic" in2="effect1_dropShadow_791_5046" result="shape"/>
</filter>
<linearGradient id="paint0_linear_791_5046" x1="91.2624" y1="0.869629" x2="91.2624" y2="104.99" gradientUnits="userSpaceOnUse">
<stop stop-color="#94897F"/>
<stop offset="1" stop-color="#BDB7B2"/>
</linearGradient>
<linearGradient id="paint1_linear_791_5046" x1="17.7374" y1="0.869629" x2="17.7374" y2="175.87" gradientUnits="userSpaceOnUse">
<stop stop-color="#8C827A"/>
<stop offset="1" stop-color="#B3A9A1"/>
</linearGradient>
</defs>
</svg>
