<svg xmlns="http://www.w3.org/2000/svg" width="20" height="20" viewBox="0 0 20 20" fill="none">
  <path d="M9.99995 16.8C6.23995 16.8 3.19995 13.76 3.19995 9.99995C3.19995 6.23995 6.23995 3.19995 9.99995 3.19995C13.76 3.19995 16.8 6.23995 16.8 9.99995C16.8 13.76 13.76 16.8 9.99995 16.8ZM9.99995 3.99995C6.67995 3.99995 3.99995 6.67995 3.99995 9.99995C3.99995 13.32 6.67995 16 9.99995 16C13.32 16 16 13.32 16 9.99995C16 6.67995 13.32 3.99995 9.99995 3.99995Z" fill="#BDB7B2"/>
  <path d="M9.19997 12.9601L5.71997 9.48007L6.27997 8.92007L9.19997 11.8401L13.72 7.32007L14.28 7.88007L9.19997 12.9601Z" fill="#BDB7B2"/>
</svg>