<svg xmlns="http://www.w3.org/2000/svg" width="29" height="27" viewBox="0 0 29 27" fill="#827A74">
  <path d="M14.4986 0C22.5081 0 29 5.12609 29 11.4512C29 17.7748 22.5081 22.9009 14.5 22.9009C13.7027 22.8995 12.9062 22.8481 12.1151 22.747L6.02786 26.7805C5.336 27.1512 5.09157 27.1107 5.37605 26.2027L6.60786 21.057C2.63071 19.0144 0 15.4748 0 11.4512C0 5.12749 6.49048 0 14.5 0M22.6587 11.2763L24.6887 9.28405C24.8058 9.1608 24.8712 8.99631 24.8709 8.82522C24.8707 8.65414 24.805 8.48981 24.6876 8.36685C24.5701 8.24389 24.4102 8.17191 24.2414 8.16606C24.0726 8.16021 23.9082 8.22096 23.7828 8.3355L21.1203 10.9461V8.78879C21.1203 8.61365 21.0516 8.44569 20.9294 8.32185C20.8071 8.19801 20.6413 8.12844 20.4685 8.12844C20.2956 8.12844 20.1298 8.19801 20.0076 8.32185C19.8853 8.44569 19.8167 8.61365 19.8167 8.78879V12.3661C19.7937 12.4684 19.7937 12.5745 19.8167 12.6767V14.69C19.8167 14.8651 19.8853 15.033 20.0076 15.1569C20.1298 15.2807 20.2956 15.3503 20.4685 15.3503C20.6413 15.3503 20.8071 15.2807 20.9294 15.1569C21.0516 15.033 21.1203 14.8651 21.1203 14.69V12.7831L21.71 12.2053L23.682 15.0495C23.7312 15.1205 23.7937 15.181 23.8661 15.2275C23.9384 15.274 24.019 15.3057 24.1034 15.3206C24.1878 15.3355 24.2742 15.3335 24.3578 15.3146C24.4414 15.2957 24.5205 15.2603 24.5906 15.2104C24.6607 15.1605 24.7204 15.0971 24.7663 15.0239C24.8122 14.9506 24.8435 14.8689 24.8582 14.7834C24.873 14.6979 24.8709 14.6104 24.8523 14.5257C24.8336 14.441 24.7987 14.3608 24.7494 14.2898L22.6587 11.2763ZM18.5738 13.968H16.5576V8.80977C16.5499 8.64008 16.4779 8.47993 16.3567 8.3626C16.2354 8.24528 16.0742 8.17981 15.9065 8.17981C15.7388 8.17981 15.5776 8.24528 15.4563 8.3626C15.3351 8.47993 15.2631 8.64008 15.2554 8.80977V14.6284C15.2554 14.9921 15.5454 15.2887 15.9058 15.2887H18.5738C18.7467 15.2887 18.9125 15.2192 19.0347 15.0953C19.1569 14.9715 19.2256 14.8035 19.2256 14.6284C19.2256 14.4533 19.1569 14.2853 19.0347 14.1615C18.9125 14.0376 18.7467 13.968 18.5738 13.968ZM10.4856 12.4417L11.4467 10.0521L12.3278 12.4403L10.4856 12.4417ZM13.9697 13.123L13.9725 13.1006C13.972 12.9343 13.9093 12.7743 13.7971 12.6529L12.3526 8.73563C12.2921 8.54895 12.1767 8.38544 12.022 8.26694C11.8673 8.14844 11.6806 8.0806 11.4868 8.07248C11.2917 8.07239 11.1012 8.13207 10.9403 8.24368C10.7793 8.35529 10.6555 8.51362 10.585 8.69785L8.28986 14.3989C8.22448 14.5611 8.22536 14.7429 8.29231 14.9044C8.35926 15.0659 8.48678 15.1938 8.64683 15.2601C8.80688 15.3263 8.98635 15.3254 9.14575 15.2576C9.30515 15.1898 9.43143 15.0606 9.49681 14.8984L9.95529 13.761H12.8139L13.2254 14.8802C13.2535 14.9639 13.2978 15.041 13.3558 15.107C13.4139 15.1729 13.4844 15.2264 13.5632 15.2643C13.642 15.3022 13.7275 15.3236 13.8146 15.3274C13.9017 15.3312 13.9887 15.3172 14.0705 15.2863C14.1522 15.2554 14.2269 15.2082 14.2903 15.1475C14.3537 15.0868 14.4044 15.0138 14.4394 14.9329C14.4745 14.852 14.4931 14.7648 14.4943 14.6764C14.4954 14.5881 14.479 14.5004 14.4461 14.4185L13.9697 13.123ZM9.38081 8.81677C9.38117 8.73007 9.36461 8.64414 9.33207 8.56395C9.29953 8.48376 9.25165 8.41088 9.1912 8.3495C9.13075 8.28813 9.05891 8.23947 8.97982 8.20634C8.90074 8.1732 8.81596 8.15623 8.73038 8.15642H4.24919C4.07632 8.15642 3.91053 8.22599 3.78829 8.34983C3.66605 8.47367 3.59738 8.64163 3.59738 8.81677C3.59738 8.9919 3.66605 9.15987 3.78829 9.28371C3.91053 9.40755 4.07632 9.47712 4.24919 9.47712H5.8511V14.7039C5.8511 14.8791 5.91977 15.047 6.04201 15.1709C6.16424 15.2947 6.33003 15.3643 6.5029 15.3643C6.67578 15.3643 6.84157 15.2947 6.9638 15.1709C7.08604 15.047 7.15471 14.8791 7.15471 14.7039V9.47712H8.729C8.8147 9.47749 8.89962 9.46066 8.97887 9.42761C9.05812 9.39455 9.13011 9.34592 9.19071 9.28453C9.25131 9.22314 9.29931 9.15019 9.33194 9.06991C9.36456 8.98963 9.38117 8.90359 9.38081 8.81677Z" fill="#827A74"/>
</svg>