<svg width="180" height="96" viewBox="0 0 180 96" fill="none" xmlns="http://www.w3.org/2000/svg">
<path d="M123.41 61.1839L166.25 0C166.559 0.0257997 166.998 0.0644992 167.566 0.116099C168.133 0.167698 168.933 0.180598 169.965 0.154798C170.171 0.154798 170.404 0.141898 170.662 0.116099C170.945 0.0644992 171.255 0.0257997 171.59 0L144.733 37.345C141.147 42.3244 138.051 46.7103 135.445 50.5029C132.839 54.2954 130.492 57.7913 128.402 60.9904C127.808 60.8614 127.06 60.7969 126.157 60.7969C125.822 60.7969 125.357 60.8485 124.764 60.9517C124.145 61.0291 123.693 61.1065 123.41 61.1839ZM147.674 61.8031C146.255 61.8031 145.249 61.3903 144.656 60.5647C144.088 59.7133 143.804 58.7459 143.804 57.6623C143.804 56.6819 144.127 55.5467 144.772 54.2567C145.417 52.9667 146.668 51.4188 148.525 49.6128C149.274 48.8388 149.777 48.2583 150.035 47.8713C150.293 47.4843 150.422 47.1489 150.422 46.8651C150.422 45.8847 149.661 45.1365 148.139 44.6205C147.107 45.1881 146.165 45.5493 145.313 45.7041C144.488 45.8331 143.856 45.8976 143.417 45.8976C142.695 45.8976 142.14 45.7815 141.753 45.5493C141.392 45.2913 141.211 45.0075 141.211 44.6979C141.211 44.2335 141.572 43.8207 142.295 43.4596C143.043 43.0984 143.92 42.9178 144.926 42.9178C146.062 42.9178 147.119 43.0597 148.1 43.3435C148.693 43.0597 149.196 42.7372 149.609 42.376C150.048 41.989 150.615 41.4085 151.312 40.6345C152.241 39.5767 153.221 38.4544 154.253 37.2676C155.285 36.055 156.433 35.036 157.697 34.2104C158.961 33.359 160.368 32.9333 161.916 32.9333C163.154 32.9333 164.147 33.2558 164.895 33.9008C165.669 34.5458 166.043 35.294 166.018 36.1453C165.992 37.0999 165.708 37.7836 165.166 38.1964C164.625 38.6092 163.992 38.8156 163.27 38.8156C162.702 38.8156 162.174 38.5963 161.683 38.1577C161.219 37.7191 161.013 37.1644 161.064 36.4936C161.09 36.0034 161.245 35.5907 161.529 35.2553C161.838 34.9199 162.199 34.6877 162.612 34.5587C162.225 34.2491 161.722 34.0943 161.103 34.0943C159.942 34.0943 158.716 34.5845 157.426 35.5649C156.162 36.5452 154.472 38.377 152.357 41.0602C151.867 41.6536 151.363 42.1825 150.847 42.6469C150.357 43.0855 149.867 43.4854 149.377 43.8465C151.828 44.9817 153.053 46.6587 153.053 48.8775C153.053 49.9095 152.757 51.0576 152.163 52.3217C151.596 53.5601 150.125 55.25 147.752 57.3914C147.339 57.8042 146.99 58.1912 146.707 58.5524C146.423 58.9136 146.281 59.2361 146.281 59.5199C146.281 59.881 146.41 60.1777 146.668 60.4099C146.926 60.6163 147.403 60.7195 148.1 60.7195C149.699 60.7195 151.363 60.2422 153.092 59.2877C154.821 58.3331 156.511 57.1463 158.162 55.7273C159.813 54.2825 161.322 52.8377 162.69 51.393C164.057 49.9482 165.153 48.7098 165.979 47.6778C166.83 46.6458 167.308 46.0782 167.411 45.975L168.185 46.6716C168.056 46.7748 167.54 47.3553 166.637 48.4131C165.734 49.4709 164.56 50.748 163.115 52.2443C161.696 53.7149 160.11 55.1855 158.355 56.6561C156.627 58.1267 154.834 59.3522 152.976 60.3325C151.144 61.3129 149.377 61.8031 147.674 61.8031Z" fill="#58534E"/>
<path d="M107.326 61.8033C105.158 61.8033 103.559 61.3131 102.527 60.3327C101.495 59.3266 100.914 58.1011 100.785 56.6563C100.708 54.9019 101.069 53.0185 101.869 51.0062C102.695 48.9938 103.585 47.3039 104.539 45.9365C105.803 44.1564 107.339 42.4536 109.145 40.8282C110.95 39.177 112.924 37.8354 115.066 36.8034C117.233 35.7457 119.451 35.2168 121.722 35.2168C123.089 35.2168 124.263 35.578 125.244 36.3004C126.25 36.9969 126.804 38.1192 126.908 39.6672C127.037 41.8602 126.611 44.1693 125.631 46.5944C124.65 48.9938 123.321 51.2255 121.644 53.2894C121.825 54.0376 122.406 54.4117 123.386 54.4117C124.341 54.4117 125.385 54.0376 126.521 53.2894C127.656 52.5154 128.752 51.6125 129.81 50.5805C130.894 49.5485 131.822 48.5939 132.596 47.7167C133.37 46.8395 133.886 46.2719 134.144 46.0139L134.996 46.6718C134.506 47.1362 133.809 47.8586 132.906 48.839C132.003 49.7936 130.997 50.7869 129.887 51.8189C128.804 52.825 127.682 53.6893 126.521 54.4117C125.385 55.1341 124.315 55.4953 123.309 55.4953C122.07 55.4953 121.232 55.1083 120.793 54.3343C118.884 56.5015 116.73 58.2946 114.33 59.7136C111.957 61.1067 109.622 61.8033 107.326 61.8033ZM108.332 60.6423C109.235 60.6423 110.28 60.3843 111.466 59.8684C112.653 59.3524 113.84 58.6687 115.027 57.8173C117.013 56.3983 118.806 54.7342 120.406 52.825V52.6702C120.406 51.0707 120.819 49.8065 121.644 48.8777C122.496 47.9231 123.321 47.3168 124.121 47.0588C125.385 44.4272 125.953 42.0666 125.824 39.9768C125.747 38.7126 125.411 37.8354 124.818 37.3452C124.25 36.855 123.618 36.6099 122.922 36.6099C121.425 36.6099 119.58 37.5 117.388 39.2802C115.22 41.0346 112.795 43.5759 110.112 46.904C108.203 49.3034 106.861 51.3287 106.087 52.9798C105.339 54.631 105.017 56.0629 105.12 57.2755C105.12 57.9721 105.352 58.7074 105.816 59.4814C106.307 60.2554 107.145 60.6423 108.332 60.6423Z" fill="#58534E"/>
<path d="M78.2237 61.8033C76.0565 61.8033 74.4569 61.3131 73.4249 60.3327C72.3929 59.3266 71.8124 58.1011 71.6835 56.6563C71.6061 54.9019 71.9672 53.0185 72.767 51.0062C73.5926 48.9938 74.4827 47.3039 75.4373 45.9365C76.7015 44.1564 78.2366 42.4536 80.0425 40.8282C81.8485 39.177 83.8222 37.8354 85.9636 36.8034C88.1307 35.7457 90.3495 35.2168 92.6199 35.2168C93.9873 35.2168 95.1612 35.578 96.1415 36.3004C97.1477 36.9969 97.7024 38.1192 97.8056 39.6672C97.9346 41.8602 97.5089 44.1693 96.5285 46.5944C95.5482 48.9938 94.2195 51.2255 92.5425 53.2894C92.7231 54.0376 93.3036 54.4117 94.284 54.4117C95.2386 54.4117 96.2834 54.0376 97.4186 53.2894C98.5538 52.5154 99.6503 51.6125 100.708 50.5805C101.792 49.5485 102.72 48.5939 103.494 47.7167C104.268 46.8395 104.784 46.2719 105.042 46.0139L105.894 46.6718C105.404 47.1362 104.707 47.8586 103.804 48.839C102.901 49.7936 101.895 50.7869 100.785 51.8189C99.7019 52.825 98.5796 53.6893 97.4186 54.4117C96.2834 55.1341 95.2128 55.4953 94.2066 55.4953C92.9682 55.4953 92.1297 55.1083 91.6911 54.3343C89.7819 56.5015 87.6277 58.2946 85.2283 59.7136C82.8547 61.1067 80.5198 61.8033 78.2237 61.8033ZM79.2299 60.6423C80.1328 60.6423 81.1777 60.3843 82.3645 59.8684C83.5513 59.3524 84.7381 58.6687 85.9249 57.8173C87.9114 56.3983 89.7045 54.7342 91.3041 52.825V52.6702C91.3041 51.0707 91.7169 49.8065 92.5425 48.8777C93.3939 47.9231 94.2195 47.3168 95.0193 47.0588C96.2834 44.4272 96.851 42.0666 96.722 39.9768C96.6446 38.7126 96.3092 37.8354 95.7158 37.3452C95.1483 36.855 94.5162 36.6099 93.8196 36.6099C92.3232 36.6099 90.4785 37.5 88.2855 39.2802C86.1184 41.0346 83.6932 43.5759 81.01 46.904C79.1009 49.3034 77.7593 51.3287 76.9853 52.9798C76.2371 54.631 75.9146 56.0629 76.0178 57.2755C76.0178 57.9721 76.25 58.7074 76.7144 59.4814C77.2046 60.2554 78.0431 60.6423 79.2299 60.6423Z" fill="#58534E"/>
<path d="M16.6138 61.8034C14.3434 61.8034 12.4085 61.2616 10.8089 60.178C9.20931 59.0686 8.40952 57.7528 8.40952 56.2306C8.40952 55.0438 8.80941 54.2054 9.6092 53.7152C10.409 53.225 11.2088 52.9799 12.0086 52.9799C12.4472 52.9799 12.8729 53.1218 13.2857 53.4056C13.7242 53.6636 13.9435 54.1151 13.9435 54.76C13.9435 55.2502 13.7242 55.6888 13.2857 56.0758C12.8729 56.4628 12.3698 56.6563 11.7764 56.6563C11.441 56.6563 11.1056 56.6434 10.7702 56.6176C10.4606 56.566 10.1768 56.4499 9.9188 56.2693V56.5015C9.9188 57.7657 10.5509 58.7977 11.8151 59.5975C13.0793 60.3973 14.782 60.7972 16.9234 60.7972C18.2134 60.7972 19.4776 60.6166 20.716 60.2554C21.9801 59.8684 23.3862 59.146 24.9342 58.0882C26.4822 57.0046 28.3398 55.4437 30.5069 53.4056C32.6741 51.3416 35.3057 48.6713 38.4016 45.3948C41.4976 42.0924 45.2257 38.0161 49.5858 33.1657C54.5135 27.5156 59.1704 22.9232 63.5563 19.3887C67.9423 15.8541 71.8767 13.1581 75.3597 11.3005C73.9407 9.85571 71.9541 8.75922 69.3999 8.01103C66.8716 7.23704 63.9562 6.85005 60.6539 6.85005C58.8479 6.85005 56.9129 7.04354 54.8489 7.43054C52.8108 7.79173 50.8887 8.30773 49.0827 8.97852C45.9867 10.1137 42.9424 11.6617 39.9496 13.6225C36.9827 15.5832 34.2995 17.7246 31.9001 20.0466C29.5007 22.3686 27.5916 24.6776 26.1726 26.9738C24.7536 29.27 24.0441 31.3339 24.0441 33.1657C24.0441 34.7137 24.5601 35.8489 25.5921 36.5713C26.6241 37.2937 27.8754 37.6549 29.346 37.6549C31.5389 37.6549 33.9641 37.0099 36.6215 35.7199C39.3046 34.4299 41.8975 32.6497 44.4001 30.3794C46.9026 28.109 49.044 25.4903 50.8242 22.5233C52.6302 19.5306 53.7653 16.3443 54.2297 12.9646C54.3329 12.4486 54.4103 12.1132 54.4619 11.9584C54.5135 11.8036 54.6167 11.7262 54.7715 11.7262C55.0553 11.7262 55.1972 12.01 55.1972 12.5776C55.1972 16.3185 54.4103 19.7757 52.8366 22.949C51.2628 26.0966 49.1859 28.8314 46.6059 31.1533C44.026 33.4753 41.188 35.2813 38.092 36.5713C35.0219 37.8613 31.9775 38.5063 28.959 38.5063C27.411 38.5063 26.0049 38.0806 24.7407 37.2292C23.5023 36.352 22.8831 34.9588 22.8831 33.0496C22.8831 30.5471 23.5797 28.0187 24.9729 25.4645C26.3919 22.8845 28.3398 20.4336 30.8165 18.1116C33.2933 15.7896 36.1571 13.7257 39.4078 11.9197C42.6586 10.0879 46.1286 8.64312 49.818 7.58534C53.5331 6.52755 57.2999 5.99866 61.1183 5.99866C68.0842 5.99866 73.4505 7.44344 77.2173 10.333C79.2554 9.35262 81.0872 8.64312 82.7126 8.20453C84.338 7.76594 85.7311 7.54664 86.8921 7.54664C87.7435 7.54664 88.1692 7.67564 88.1692 7.93363C88.1692 8.08843 87.7564 8.23033 86.9308 8.35933C86.131 8.46253 84.9829 8.70762 83.4866 9.09462C81.9902 9.48161 80.2358 10.1911 78.2234 11.2231C80.6486 13.5193 81.8612 16.383 81.8612 19.8144C81.8612 22.1106 81.1517 24.368 79.7327 26.5868C78.3137 28.7798 76.4304 30.7792 74.0826 32.5852C71.7606 34.3912 69.2452 35.8489 66.5362 36.9583C68.6002 38.79 69.6321 41.3829 69.6321 44.7369C69.6321 46.9298 69.013 49.0454 67.7746 51.0836C66.562 53.1218 64.9108 54.9535 62.821 56.5789C60.7571 58.1785 58.4222 59.4556 55.8164 60.4102C53.2107 61.339 50.5146 61.8034 47.7282 61.8034C45.2515 61.8034 43.5616 61.3261 42.6586 60.3715C41.7556 59.4169 41.3041 58.4623 41.3041 57.5077C41.3041 56.1661 41.8846 54.6955 43.0456 53.096C44.2066 51.4964 45.7545 49.9742 47.6895 48.5294C49.6245 47.0846 51.7788 45.8979 54.1523 44.9691C56.5259 44.0403 58.9253 43.5759 61.3505 43.5759C61.8922 43.5759 62.1631 43.7307 62.1631 44.0403C62.1631 44.4015 61.7632 44.5821 60.9635 44.5821C58.9511 44.5821 56.8613 45.0078 54.6941 45.8592C52.5528 46.6847 50.5662 47.7554 48.7344 49.0712C46.9026 50.387 45.4192 51.7931 44.284 53.2895C43.1488 54.7858 42.5812 56.2048 42.5812 57.5464C42.5812 58.3204 42.9424 59.0428 43.6648 59.7136C44.3872 60.3844 45.7932 60.7198 47.883 60.7198C49.7148 60.7198 51.6498 60.1909 53.688 59.1331C55.7261 58.0753 57.6353 56.6047 59.4155 54.7213C61.1957 52.838 62.6404 50.6579 63.7498 48.1811C64.885 45.6786 65.4526 42.9825 65.4526 40.0929C65.4526 39.0609 65.2591 38.2354 64.8721 37.6162C63.6079 38.029 62.3308 38.3643 61.0409 38.6223C59.7509 38.8545 58.4867 38.9706 57.2483 38.9706C56.0615 38.9706 55.1585 38.7771 54.5393 38.3902C53.9201 38.0032 53.6105 37.6033 53.6105 37.1905C53.6105 36.5713 54.2555 36.0037 55.5455 35.4877C56.8355 34.9717 58.3061 34.7137 59.9573 34.7137C61.7116 34.7137 63.2854 35.062 64.6786 35.7586C66.8458 34.7008 68.9356 33.2689 70.9479 31.4629C72.9603 29.657 74.6115 27.5414 75.9015 25.1162C77.1915 22.6652 77.8364 19.995 77.8364 17.1054C77.8364 15.2994 77.2946 13.6999 76.2111 12.3067C75.6435 12.6421 75.0501 13.0162 74.4309 13.429C73.8375 13.8418 73.2183 14.2804 72.5733 14.7447C70.4319 16.3443 68.3164 18.1374 66.2266 20.124C64.1368 22.1106 61.9567 24.4325 59.6864 27.0899C57.416 29.7473 54.9392 32.8819 52.2561 36.4939C47.4057 42.9954 42.6973 48.194 38.1307 52.0898C33.59 55.9855 29.2557 58.7848 25.1277 60.4876C23.7087 61.0552 22.2897 61.4164 20.8708 61.5712C19.4776 61.726 18.0586 61.8034 16.6138 61.8034ZM57.287 37.7323C59.1446 37.7323 61.2086 37.255 63.4789 36.3004C62.6533 35.836 61.4924 35.6038 59.996 35.6038C58.7834 35.6038 57.7385 35.7457 56.8613 36.0295C56.0099 36.2875 55.5842 36.5713 55.5842 36.8809C55.5842 37.0615 55.739 37.255 56.0486 37.4614C56.384 37.642 56.7968 37.7323 57.287 37.7323Z" fill="#58534E"/>
<path d="M170.066 91.1135C170.066 88.3332 171.727 86.6719 174.541 86.6719C177.321 86.6719 178.983 88.3332 178.983 91.1135C178.983 93.9616 177.321 95.6229 174.541 95.6229C171.727 95.6229 170.066 93.9616 170.066 91.1135Z" fill="#58534E"/>
<path d="M140.547 95.284V66.8033H167.434V73.9235H149.498V77.5853H164.382V83.8917H149.498V88.1638H167.434V95.284H140.547Z" fill="#58534E"/>
<path d="M113.992 95.284V66.8033H122.943V87.9604H137.827V95.284H113.992Z" fill="#58534E"/>
<path d="M81.5761 95.284V66.8033H100.834C107.073 66.8033 110.938 70.499 110.938 76.5681C110.938 82.8067 106.87 87.0789 100.834 87.0789H90.5272V95.284H81.5761ZM90.5272 80.1621H98.1898C100.631 80.1621 101.987 79.0432 101.987 77.1445C101.987 75.2119 100.563 74.1269 98.1898 74.1269H90.5272V80.1621Z" fill="#58534E"/>
<path d="M49.1606 95.284V66.8033H68.419C74.6576 66.8033 78.5228 70.499 78.5228 76.5681C78.5228 82.8067 74.4542 87.0789 68.419 87.0789H58.1117V95.284H49.1606ZM58.1117 80.1621H65.7743C68.2155 80.1621 69.5718 79.0432 69.5718 77.1445C69.5718 75.2119 68.1477 74.1269 65.7743 74.1269H58.1117V80.1621Z" fill="#58534E"/>
<path d="M36.1479 95.284V66.8033H45.099V95.284H36.1479Z" fill="#58534E"/>
<path d="M1.01725 95.284V66.8033H19.8688C26.6838 66.8033 31.1254 70.2956 31.1254 75.6188C31.1254 79.5518 28.7181 82.4677 25.1919 83.2814C26.6499 84.0273 27.8027 85.0784 28.5486 86.5025L33.0919 95.284H23.4288L19.5297 87.6892C18.6821 86.0617 17.7327 85.6548 14.6473 85.6548H9.96832V95.284H1.01725ZM9.96832 79.7552H18.3769C20.8181 79.7552 22.1743 78.7381 22.1743 76.9072C22.1743 75.1441 20.7503 74.1269 18.3769 74.1269H9.96832V79.7552Z" fill="#58534E"/>
</svg>
