<svg width="30" height="30" viewBox="0 0 30 30" fill="none" xmlns="http://www.w3.org/2000/svg">
<path d="M18.75 8.55469C18.75 8.55469 20.1773 7.85156 15 7.85156C13.1458 7.85156 11.3332 8.4014 9.79153 9.43153C8.24982 10.4617 7.0482 11.9258 6.33863 13.6389C5.62906 15.352 5.4434 17.237 5.80514 19.0555C6.16687 20.8741 7.05976 22.5446 8.37087 23.8557C9.68199 25.1668 11.3525 26.0597 13.171 26.4214C14.9896 26.7832 16.8746 26.5975 18.5877 25.8879C20.3007 25.1784 21.7649 23.9767 22.795 22.435C23.8252 20.8933 24.375 19.0808 24.375 17.2266" stroke="#58534E" stroke-miterlimit="10" stroke-linecap="round"/>
<path d="M15 3.39844L19.6875 8.08594L15 12.7734" stroke="#58534E" stroke-linecap="round" stroke-linejoin="round"/>
</svg>
