<svg width="132" height="133" viewBox="0 0 132 133" fill="none" xmlns="http://www.w3.org/2000/svg">
<path d="M64.769 0.319887C65.5345 -0.106629 66.4655 -0.106629 67.231 0.319887L71.6818 2.79979C72.2843 3.13553 72.9974 3.21064 73.6565 3.0078L78.5244 1.50957C79.3617 1.25189 80.2723 1.44589 80.9326 2.0226L84.7717 5.37577C85.2914 5.82974 85.9733 6.05181 86.6601 5.99074L91.7324 5.53964C92.6048 5.46206 93.4553 5.84158 93.9816 6.54328L97.0412 10.6232C97.4554 11.1755 98.0763 11.5348 98.7607 11.6182L103.816 12.234C104.685 12.3399 105.438 12.8883 105.808 13.6844L107.954 18.3127C108.245 18.9393 108.777 19.4201 109.43 19.6443L114.246 21.3C115.075 21.5848 115.698 22.2782 115.894 23.1337L117.033 28.1082C117.188 28.7817 117.609 29.363 118.2 29.7182L122.569 32.3415C123.32 32.7926 123.785 33.6007 123.8 34.4784L123.882 39.5816C123.893 40.2725 124.185 40.929 124.69 41.3996L128.418 44.8758C129.06 45.4737 129.347 46.3611 129.179 47.2226L128.201 52.2315C128.069 52.9096 128.218 53.6125 128.614 54.1781L131.54 58.3553C132.043 59.0737 132.141 60.0017 131.797 60.8093L129.802 65.505C129.532 66.1407 129.532 66.8593 129.802 67.495L131.797 72.1907C132.141 72.9983 132.043 73.9263 131.54 74.6447L128.614 78.8219C128.218 79.3875 128.069 80.0904 128.201 80.7685L129.179 85.7774C129.347 86.6389 129.06 87.5263 128.418 88.1242L124.69 91.6004C124.185 92.071 123.893 92.7275 123.882 93.4184L123.8 98.5216C123.785 99.3993 123.32 100.207 122.569 100.659L118.2 103.282C117.609 103.637 117.188 104.218 117.033 104.892L115.894 109.866C115.698 110.722 115.075 111.415 114.246 111.7L109.43 113.356C108.777 113.58 108.245 114.061 107.954 114.687L105.808 119.316C105.438 120.112 104.685 120.66 103.816 120.766L98.7607 121.382C98.0763 121.465 97.4554 121.824 97.0412 122.377L93.9816 126.457C93.4553 127.158 92.6048 127.538 91.7324 127.46L86.6601 127.009C85.9733 126.948 85.2914 127.17 84.7717 127.624L80.9326 130.977C80.2723 131.554 79.3617 131.748 78.5244 131.49L73.6565 129.992C72.9974 129.789 72.2843 129.864 71.6818 130.2L67.231 132.68C66.4655 133.107 65.5345 133.107 64.769 132.68L60.3182 130.2C59.7157 129.864 59.0026 129.789 58.3435 129.992L53.4756 131.49C52.6383 131.748 51.7277 131.554 51.0674 130.977L47.2283 127.624C46.7086 127.17 46.0267 126.948 45.34 127.009L40.2676 127.46C39.3952 127.538 38.5447 127.158 38.0185 126.457L34.9588 122.377C34.5446 121.824 33.9237 121.465 33.2393 121.382L28.1842 120.766C27.3148 120.66 26.5616 120.112 26.1924 119.316L24.046 114.687C23.7554 114.061 23.2226 113.58 22.5704 113.356L17.7535 111.7C16.9251 111.415 16.3021 110.722 16.1061 109.866L14.9668 104.892C14.8125 104.218 14.3911 103.637 13.7997 103.282L9.43148 100.659C8.68019 100.207 8.2147 99.3993 8.20049 98.5216L8.1179 93.4184C8.10672 92.7275 7.81509 92.071 7.3103 91.6004L3.58174 88.1242C2.94047 87.5263 2.65278 86.6389 2.82095 85.7774L3.79877 80.7685C3.93116 80.0904 3.78209 79.3875 3.38595 78.8219L0.459981 74.6447C-0.0432551 73.9263 -0.140571 72.9983 0.202635 72.1907L2.19814 67.495C2.4683 66.8593 2.4683 66.1407 2.19814 65.505L0.202635 60.8093C-0.14057 60.0017 -0.0432556 59.0737 0.459981 58.3553L3.38595 54.1781C3.78209 53.6125 3.93116 52.9096 3.79877 52.2315L2.82095 47.2226C2.65278 46.3611 2.94047 45.4737 3.58174 44.8758L7.3103 41.3996C7.81509 40.929 8.10672 40.2725 8.1179 39.5816L8.20049 34.4784C8.2147 33.6007 8.68019 32.7926 9.43147 32.3415L13.7997 29.7182C14.3911 29.363 14.8125 28.7817 14.9668 28.1082L16.1061 23.1337C16.3021 22.2782 16.9251 21.5848 17.7535 21.3L22.5704 19.6443C23.2226 19.4201 23.7554 18.9393 24.046 18.3127L26.1924 13.6844C26.5616 12.8883 27.3148 12.3399 28.1842 12.234L33.2393 11.6182C33.9237 11.5348 34.5446 11.1755 34.9588 10.6232L38.0185 6.54328C38.5447 5.84158 39.3952 5.46206 40.2676 5.53964L45.3399 5.99074C46.0267 6.05181 46.7086 5.82974 47.2283 5.37577L51.0674 2.0226C51.7277 1.44589 52.6384 1.25189 53.4756 1.50957L58.3435 3.0078C59.0026 3.21064 59.7157 3.13553 60.3182 2.79979L64.769 0.319887Z" fill="#58534E"/>
<path d="M120.892 66.9232C120.892 97.0742 96.505 121.516 66.4223 121.516C36.3395 121.516 11.9526 97.0742 11.9526 66.9232C11.9526 36.7723 36.3395 12.3301 66.4223 12.3301C96.505 12.3301 120.892 36.7723 120.892 66.9232Z" fill="#58534E"/>
<path d="M100.624 66.9232C100.624 47.9912 85.3114 32.6438 66.4223 32.6438C47.5331 32.6438 32.2204 47.9912 32.2204 66.9232C32.2204 85.8552 47.5331 101.203 66.4223 101.203V121.516C36.3395 121.516 11.9526 97.0742 11.9526 66.9232C11.9526 36.7723 36.3395 12.3301 66.4223 12.3301C96.505 12.3301 120.892 36.7723 120.892 66.9232C120.892 97.0742 96.505 121.516 66.4223 121.516V101.203C85.3114 101.203 100.624 85.8552 100.624 66.9232Z" fill="#F7F5F1"/>
<path d="M110.758 66.9232C110.758 42.3817 90.9082 22.4869 66.4223 22.4869C41.9363 22.4869 22.0865 42.3817 22.0865 66.9232C22.0865 91.4647 41.9363 111.359 66.4223 111.359V114.745C40.0707 114.745 18.7086 93.3345 18.7086 66.9232C18.7086 40.5119 40.0707 19.1013 66.4223 19.1013C92.7738 19.1013 114.136 40.5119 114.136 66.9232C114.136 93.3345 92.7738 114.745 66.4223 114.745V111.359C90.9082 111.359 110.758 91.4647 110.758 66.9232Z" fill="#58534E"/>
<path d="M65.6191 14.8078C65.8719 14.0279 66.9726 14.028 67.2254 14.8078L68.6027 19.0561C68.7157 19.4048 69.04 19.6409 69.4058 19.6409H73.8627C74.6807 19.6409 75.0209 20.6901 74.359 21.1721L70.7534 23.7977C70.4574 24.0132 70.3335 24.3953 70.4466 24.744L71.8238 28.9923C72.0766 29.7721 71.1861 30.4206 70.5243 29.9386L66.9186 27.313C66.6227 27.0975 66.2219 27.0975 65.9259 27.313L62.3202 29.9386C61.6584 30.4206 60.7679 29.7721 61.0207 28.9923L62.3979 24.744C62.511 24.3953 62.3871 24.0132 62.0911 23.7977L58.4855 21.1721C57.8236 20.6901 58.1638 19.6409 58.9819 19.6409H63.4387C63.8046 19.6409 64.1288 19.4048 64.2419 19.0561L65.6191 14.8078Z" fill="#58534E"/>
<path d="M73.8627 17.9483C76.3169 17.9483 77.3374 21.0957 75.3521 22.5415L72.2422 24.8047L73.4305 28.4689C74.1889 30.8083 71.5169 32.7539 69.5314 31.3081L66.4223 29.0433L63.3132 31.3081C61.3276 32.7539 58.6556 30.8082 59.414 28.4689L60.6015 24.8047L57.4924 22.5415C55.5071 21.0957 56.5277 17.9483 58.9818 17.9483V19.6411L58.8342 19.6527C58.1252 19.7697 57.865 20.7201 58.4854 21.1719L62.0909 23.7979C62.3868 24.0134 62.5106 24.3949 62.3977 24.7435L61.0205 28.9921C60.7835 29.7232 61.5518 30.3393 62.194 30.0162L62.3202 29.9385L65.9258 27.3125C66.2217 27.0971 66.6228 27.0971 66.9187 27.3125L70.5243 29.9385C71.1448 30.3903 71.9658 29.8487 71.8578 29.1367L71.824 28.9921L70.4468 24.7435C70.3339 24.3949 70.4577 24.0134 70.7536 23.7979L74.3592 21.1719C74.9795 20.7201 74.7193 19.7697 74.0103 19.6527L73.8627 19.6411V17.9483ZM64.0125 14.2841C64.7473 12.0181 67.8697 11.9473 68.7537 14.0717L68.832 14.2841L70.0196 17.9483H73.8627V19.6411H69.406L69.2708 19.6295C69.0064 19.5867 68.7771 19.4203 68.6547 19.1815L68.6028 19.0559L67.2255 14.8073C66.9726 14.0278 65.8719 14.0278 65.619 14.8073L64.2418 19.0559C64.1429 19.361 63.8824 19.5795 63.5738 19.6295L63.4385 19.6411H58.9818V17.9483H62.8249L64.0125 14.2841Z" fill="#F7F5F1"/>
<path d="M89.2648 20.7326C89.5176 19.9528 90.6184 19.9528 90.8712 20.7326L92.2484 24.9809C92.3614 25.3296 92.6857 25.5657 93.0516 25.5657H97.5084C98.3265 25.5657 98.6666 26.6149 98.0048 27.0969L94.3991 29.7225C94.1031 29.938 93.9793 30.3201 94.0923 30.6688L95.4696 34.9171C95.7224 35.6969 94.8319 36.3454 94.17 35.8634L90.5644 33.2378C90.2684 33.0223 89.8676 33.0223 89.5716 33.2378L85.9659 35.8634C85.3041 36.3454 84.4136 35.6969 84.6664 34.9171L86.0437 30.6688C86.1567 30.3201 86.0329 29.938 85.7369 29.7225L82.1312 27.0969C81.4694 26.6149 81.8095 25.5657 82.6276 25.5657H87.0844C87.4503 25.5657 87.7745 25.3296 87.8876 24.9809L89.2648 20.7326Z" fill="#58534E"/>
<path d="M97.5084 23.8731C99.9626 23.8731 100.983 27.0205 98.9978 28.4663L95.8879 30.7295L97.0763 34.3937C97.8347 36.7331 95.1626 38.6787 93.1771 37.2329L90.068 34.9681L86.9589 37.2329C84.9734 38.6788 82.3013 36.7331 83.0597 34.3937L84.2473 30.7295L81.1382 28.4663C79.1528 27.0205 80.1734 23.8731 82.6276 23.8731V25.5659L82.4799 25.5775C81.7709 25.6945 81.5107 26.6449 82.1311 27.0967L85.7367 29.7227C86.0326 29.9382 86.1564 30.3197 86.0435 30.6683L84.6662 34.9169C84.4292 35.648 85.1975 36.2641 85.8398 35.941L85.9659 35.8633L89.5715 33.2373C89.8675 33.0219 90.2685 33.0219 90.5645 33.2373L94.17 35.8633C94.7905 36.3151 95.6116 35.7735 95.5036 35.0615L95.4698 34.9169L94.0925 30.6683C93.9796 30.3197 94.1034 29.9382 94.3993 29.7227L98.0049 27.0967C98.6253 26.6449 98.365 25.6945 97.656 25.5775L97.5084 25.5659V23.8731ZM87.6582 20.2089C88.393 17.9429 91.5155 17.8721 92.3994 19.9965L92.4778 20.2089L93.6653 23.8731H97.5084V25.5659H93.0517L92.9165 25.5543C92.6521 25.5115 92.4229 25.3451 92.3004 25.1063L92.2485 24.9807L90.8712 20.7322C90.6183 19.9526 89.5176 19.9526 89.2647 20.7322L87.8875 24.9807C87.7886 25.2858 87.5281 25.5043 87.2195 25.5543L87.0842 25.5659H82.6276V23.8731H86.4707L87.6582 20.2089Z" fill="#F7F5F1"/>
<path d="M41.9734 20.7326C42.2262 19.9528 43.3269 19.9528 43.5797 20.7326L44.9569 24.9809C45.07 25.3296 45.3942 25.5657 45.7601 25.5657H50.2169C51.035 25.5657 51.3751 26.6149 50.7133 27.0969L47.1076 29.7225C46.8117 29.938 46.6878 30.3201 46.8009 30.6688L48.1781 34.9171C48.4309 35.6969 47.5404 36.3454 46.8786 35.8634L43.2729 33.2378C42.9769 33.0223 42.5761 33.0223 42.2801 33.2378L38.6745 35.8634C38.0126 36.3454 37.1221 35.6969 37.3749 34.9171L38.7522 30.6688C38.8652 30.3201 38.7414 29.938 38.4454 29.7225L34.8397 27.0969C34.1779 26.6149 34.518 25.5657 35.3361 25.5657H39.793C40.1588 25.5657 40.4831 25.3296 40.5961 24.9809L41.9734 20.7326Z" fill="#58534E"/>
<path d="M50.2169 23.8731C52.6711 23.8731 53.6917 27.0205 51.7064 28.4663L48.5964 30.7295L49.7848 34.3937C50.5432 36.7331 47.8711 38.6787 45.8856 37.2329L42.7765 34.9681L39.6674 37.2329C37.6819 38.6788 35.0098 36.7331 35.7682 34.3937L36.9558 30.7295L33.8467 28.4663C31.8614 27.0205 32.8819 23.8731 35.3361 23.8731V25.5659L35.1885 25.5775C34.4795 25.6945 34.2193 26.6449 34.8396 27.0967L38.4452 29.7227C38.7411 29.9382 38.8649 30.3197 38.752 30.6683L37.3748 34.9169C37.1377 35.648 37.906 36.2641 38.5483 35.941L38.6745 35.8633L42.2801 33.2373C42.576 33.0219 42.9771 33.0219 43.273 33.2373L46.8786 35.8633C47.499 36.3151 48.3201 35.7735 48.2121 35.0615L48.1783 34.9169L46.801 30.6683C46.6881 30.3197 46.812 29.9382 47.1078 29.7227L50.7134 27.0967C51.3338 26.6449 51.0736 25.6945 50.3646 25.5775L50.2169 25.5659V23.8731ZM40.3668 20.2089C41.1016 17.9429 44.224 17.8721 45.1079 19.9965L45.1863 20.2089L46.3739 23.8731H50.2169V25.5659H45.7603L45.625 25.5543C45.3606 25.5115 45.1314 25.3451 45.009 25.1063L44.957 24.9807L43.5798 20.7322C43.3269 19.9526 42.2262 19.9526 41.9733 20.7322L40.596 24.9807C40.4971 25.2858 40.2366 25.5043 39.928 25.5543L39.7928 25.5659H35.3361V23.8731H39.1792L40.3668 20.2089Z" fill="#F7F5F1"/>
<path d="M67.2254 119.039C66.9726 119.819 65.8719 119.819 65.6191 119.039L64.2419 114.791C64.1288 114.442 63.8046 114.206 63.4387 114.206L58.9819 114.206C58.1638 114.206 57.8236 113.157 58.4855 112.675L62.0911 110.049C62.3871 109.833 62.511 109.451 62.3979 109.103L61.0207 104.854C60.7679 104.075 61.6584 103.426 62.3202 103.908L65.9259 106.534C66.2219 106.749 66.6227 106.749 66.9186 106.534L70.5243 103.908C71.1861 103.426 72.0766 104.075 71.8238 104.854L70.4466 109.103C70.3335 109.451 70.4574 109.833 70.7534 110.049L74.359 112.675C75.0209 113.157 74.6807 114.206 73.8627 114.206L69.4058 114.206C69.04 114.206 68.7157 114.442 68.6027 114.791L67.2254 119.039Z" fill="#58534E"/>
<path d="M58.9818 115.898C56.5277 115.898 55.5071 112.751 57.4924 111.305L60.6024 109.042L59.414 105.378C58.6556 103.038 61.3276 101.092 63.3132 102.538L66.4223 104.803L69.5314 102.538C71.5169 101.092 74.1889 103.038 73.4305 105.378L72.243 109.042L75.3521 111.305C77.3374 112.751 76.3168 115.898 73.8627 115.898L73.8627 114.205L74.0103 114.194C74.7193 114.077 74.9795 113.126 74.3592 112.675L70.7536 110.049C70.4577 109.833 70.3339 109.452 70.4468 109.103L71.824 104.854C72.061 104.123 71.2927 103.507 70.6505 103.83L70.5243 103.908L66.9187 106.534C66.6228 106.749 66.2217 106.749 65.9258 106.534L62.3202 103.908C61.6998 103.456 60.8787 103.998 60.9867 104.71L61.0205 104.854L62.3977 109.103C62.5106 109.452 62.3868 109.833 62.0909 110.049L58.4854 112.675C57.865 113.126 58.1252 114.077 58.8342 114.194L58.9818 114.205L58.9818 115.898ZM68.832 119.562C68.0972 121.828 64.9748 121.899 64.0908 119.775L64.0125 119.562L62.8249 115.898L58.9818 115.898L58.9818 114.205L63.4385 114.205L63.5738 114.217C63.8382 114.26 64.0674 114.426 64.1898 114.665L64.2418 114.791L65.619 119.039C65.8719 119.819 66.9726 119.819 67.2255 119.039L68.6028 114.791C68.7017 114.485 68.9622 114.267 69.2708 114.217L69.406 114.205L73.8627 114.205L73.8627 115.898L70.0196 115.898L68.832 119.562Z" fill="#F7F5F1"/>
<path d="M43.5797 113.114C43.3269 113.894 42.2262 113.894 41.9734 113.114L40.5961 108.866C40.4831 108.517 40.1588 108.281 39.793 108.281L35.3361 108.281C34.518 108.281 34.1779 107.232 34.8397 106.75L38.4454 104.124C38.7414 103.909 38.8652 103.527 38.7522 103.178L37.3749 98.9295C37.1221 98.1497 38.0126 97.5013 38.6745 97.9832L42.2802 100.609C42.5761 100.824 42.9769 100.824 43.2729 100.609L46.8786 97.9832C47.5404 97.5013 48.4309 98.1497 48.1781 98.9296L46.8009 103.178C46.6878 103.527 46.8117 103.909 47.1076 104.124L50.7133 106.75C51.3752 107.232 51.035 108.281 50.2169 108.281L45.7601 108.281C45.3942 108.281 45.07 108.517 44.9569 108.866L43.5797 113.114Z" fill="#58534E"/>
<path d="M35.3361 109.973C32.8819 109.973 31.8614 106.826 33.8467 105.38L36.9566 103.117L35.7683 99.4528C35.0098 97.1134 37.6819 95.1677 39.6674 96.6135L42.7765 98.8783L45.8856 96.6135C47.8712 95.1677 50.5432 97.1134 49.7848 99.4528L48.5972 103.117L51.7064 105.38C53.6917 106.826 52.6711 109.973 50.217 109.973L50.217 108.281L50.3646 108.269C51.0736 108.152 51.3338 107.202 50.7134 106.75L47.1078 104.124C46.812 103.908 46.6881 103.527 46.8011 103.178L48.1783 98.9296C48.4153 98.1985 47.647 97.5824 47.0048 97.9054L46.8786 97.9831L43.273 100.609C42.9771 100.825 42.576 100.825 42.2801 100.609L38.6745 97.9831C38.054 97.5313 37.233 98.0729 37.3409 98.7849L37.3748 98.9296L38.752 103.178C38.8649 103.527 38.7411 103.908 38.4452 104.124L34.8396 106.75C34.2193 107.202 34.4795 108.152 35.1885 108.269L35.3361 108.281L35.3361 109.973ZM45.1863 113.638C44.4515 115.904 41.3291 115.974 40.4451 113.85L40.3668 113.638L39.1792 109.973L35.3361 109.973L35.3361 108.281L39.7928 108.281L39.928 108.292C40.1924 108.335 40.4217 108.501 40.5441 108.74L40.596 108.866L41.9733 113.114C42.2262 113.894 43.3269 113.894 43.5798 113.114L44.957 108.866C45.0559 108.561 45.3164 108.342 45.625 108.292L45.7603 108.281L50.217 108.281L50.217 109.973L46.3739 109.973L45.1863 113.638Z" fill="#F7F5F1"/>
<path d="M90.8712 113.114C90.6184 113.894 89.5176 113.894 89.2648 113.114L87.8876 108.866C87.7745 108.517 87.4503 108.281 87.0844 108.281L82.6276 108.281C81.8095 108.281 81.4694 107.232 82.1312 106.75L85.7369 104.124C86.0329 103.909 86.1567 103.527 86.0437 103.178L84.6664 98.9295C84.4136 98.1497 85.3041 97.5013 85.966 97.9832L89.5716 100.609C89.8676 100.824 90.2684 100.824 90.5644 100.609L94.17 97.9832C94.8319 97.5013 95.7224 98.1497 95.4696 98.9296L94.0923 103.178C93.9793 103.527 94.1031 103.909 94.3991 104.124L98.0048 106.75C98.6666 107.232 98.3265 108.281 97.5084 108.281L93.0516 108.281C92.6857 108.281 92.3614 108.517 92.2484 108.866L90.8712 113.114Z" fill="#58534E"/>
<path d="M82.6276 109.973C80.1734 109.973 79.1529 106.826 81.1382 105.38L84.2481 103.117L83.0597 99.4528C82.3013 97.1134 84.9734 95.1677 86.9589 96.6135L90.068 98.8783L93.1771 96.6135C95.1626 95.1677 97.8347 97.1134 97.0763 99.4528L95.8887 103.117L98.9978 105.38C100.983 106.826 99.9626 109.973 97.5084 109.973L97.5084 108.281L97.656 108.269C98.3651 108.152 98.6253 107.202 98.0049 106.75L94.3993 104.124C94.1034 103.908 93.9796 103.527 94.0925 103.178L95.4698 98.9296C95.7068 98.1985 94.9385 97.5824 94.2962 97.9054L94.1701 97.9831L90.5645 100.609C90.2685 100.825 89.8675 100.825 89.5715 100.609L85.966 97.9831C85.3455 97.5313 84.5244 98.0729 84.6324 98.7849L84.6662 98.9296L86.0435 103.178C86.1564 103.527 86.0326 103.908 85.7367 104.124L82.1311 106.75C81.5107 107.202 81.771 108.152 82.48 108.269L82.6276 108.281L82.6276 109.973ZM92.4778 113.638C91.7429 115.904 88.6205 115.974 87.7366 113.85L87.6582 113.638L86.4707 109.973L82.6276 109.973L82.6276 108.281L87.0842 108.281L87.2195 108.292C87.4839 108.335 87.7131 108.501 87.8355 108.74L87.8875 108.866L89.2647 113.114C89.5176 113.894 90.6184 113.894 90.8713 113.114L92.2485 108.866C92.3474 108.561 92.6079 108.342 92.9165 108.292L93.0518 108.281L97.5084 108.281L97.5084 109.973L93.6653 109.973L92.4778 113.638Z" fill="#F7F5F1"/>
<path d="M27.9979 59.7289C27.9979 50.3797 35.5598 42.8008 44.8877 42.8008H87.1123C96.4403 42.8008 104.002 50.3798 104.002 59.7289V74.1178C104.002 83.4669 96.4403 91.0459 87.1123 91.0459H44.8877C35.5598 91.0459 27.9979 83.4669 27.9979 74.1178V59.7289Z" fill="#F7F5F1"/>
<path d="M87.1123 87.6602V91.0459H44.8877V87.6602H87.1123ZM100.624 74.1178V59.7289C100.624 52.2496 94.5747 46.1864 87.1123 46.1864H44.8877C37.4254 46.1864 31.3759 52.2496 31.3759 59.7289V74.1178C31.3759 81.5971 37.4254 87.6602 44.8877 87.6602V91.0459L44.4515 91.0401C35.4701 90.8118 28.2314 83.5568 28.0037 74.555L27.9979 74.1178V59.7289C27.9979 50.3798 35.5598 42.8008 44.8877 42.8008H87.1123C96.4403 42.8008 104.002 50.3798 104.002 59.7289V74.1178C104.002 83.3207 96.6749 90.8082 87.5485 91.0401L87.1123 91.0459V87.6602C94.5747 87.6602 100.624 81.5971 100.624 74.1178Z" fill="#58534E"/>
<path d="M84.6193 66.0838H95.1991V70.1973H68.932V66.0838H79.5118V64.5298H70.5129V54.0784H93.6182V58.1005H75.6204V60.5077H93.9222V64.5298H84.6193V66.0838ZM70.3305 75.6515V71.5685H93.679V80.405H88.4803V75.6515H70.3305Z" fill="#58534E"/>
<path d="M55.1027 70.2583C53.4914 70.9591 50.8768 71.2029 48.2927 71.2029H37.2873V67.0589H43.3372V65.2307C39.9322 64.5603 37.8345 62.5493 37.8345 59.6241C37.8345 56.0895 40.9963 53.8042 45.891 53.8042C50.7856 53.8042 53.9474 56.0895 53.9474 59.6241C53.9474 62.5493 51.8497 64.5908 48.4143 65.2307V67.0589C50.816 67.0589 53.4914 66.8151 55.1027 66.1143V70.2583ZM61.7302 59.9897H64.7096V64.8346H61.7302V73.8234H56.5923V54.0784H61.7302V59.9897ZM42.8204 59.6241C42.8204 60.8429 43.9757 61.6656 45.891 61.6656C47.8063 61.6656 48.9615 60.8429 48.9615 59.6241C48.9615 58.4053 47.8063 57.5826 45.891 57.5826C43.9757 57.5826 42.8204 58.4053 42.8204 59.6241ZM44.0365 72.5131V75.743H62.095V80.1003H38.8378V72.5131H44.0365Z" fill="#58534E"/>
</svg>
