<svg width="30" height="30" viewBox="0 0 30 30" fill="none" xmlns="http://www.w3.org/2000/svg">
<path fill-rule="evenodd" clip-rule="evenodd" d="M14.033 6.24005C12.7903 6.24016 11.5656 6.53745 10.4612 7.10712C9.35677 7.67678 8.40458 8.50231 7.68407 9.51483C6.96357 10.5273 6.49564 11.6975 6.31933 12.9276C6.14302 14.1578 6.26344 15.4122 6.67054 16.5864C7.07765 17.7605 7.75963 18.8203 8.6596 19.6772C9.55956 20.5342 10.6514 21.1635 11.844 21.5127C13.0367 21.8618 14.2955 21.9207 15.5155 21.6844C16.7356 21.4481 17.8814 20.9234 18.8574 20.1542L22.2057 23.5026C22.3786 23.6696 22.6102 23.762 22.8506 23.7599C23.091 23.7578 23.321 23.6614 23.491 23.4914C23.661 23.3214 23.7574 23.0915 23.7595 22.8511C23.7616 22.6107 23.6691 22.3791 23.5021 22.2062L20.1538 18.8578C21.0597 17.7086 21.6237 16.3277 21.7813 14.8729C21.939 13.4182 21.6839 11.9484 21.0452 10.6319C20.4066 9.31533 19.4102 8.2052 18.1701 7.42851C16.93 6.65182 15.4962 6.23995 14.033 6.24005ZM8.07352 14.0333C8.07352 12.4527 8.70139 10.9369 9.81901 9.81927C10.9366 8.70164 12.4524 8.07376 14.033 8.07376C15.6135 8.07376 17.1294 8.70164 18.247 9.81927C19.3646 10.9369 19.9925 12.4527 19.9925 14.0333C19.9925 15.6139 19.3646 17.1297 18.247 18.2474C17.1294 19.365 15.6135 19.9929 14.033 19.9929C12.4524 19.9929 10.9366 19.365 9.81901 18.2474C8.70139 17.1297 8.07352 15.6139 8.07352 14.0333Z" fill="#58534E"/>
</svg>
