<svg width="30" height="30" viewBox="0 0 30 30" fill="none" xmlns="http://www.w3.org/2000/svg">
<path d="M5.18181 5.18195L6.54545 27C6.61022 28.2607 7.52726 29.1818 8.72726 29.1818H21.2727C22.4775 29.1818 23.3775 28.2607 23.4545 27L24.8182 5.18195" stroke="#58534E" stroke-linecap="round" stroke-linejoin="round"/>
<path d="M3 5.18195H27" stroke="#58534E" stroke-miterlimit="10" stroke-linecap="round"/>
<path d="M10.6364 5.1818V2.45454C10.6357 2.23947 10.6776 2.0264 10.7596 1.82759C10.8416 1.62877 10.9622 1.44813 11.1142 1.29606C11.2663 1.14398 11.447 1.02347 11.6458 0.94146C11.8446 0.859449 12.0577 0.817553 12.2727 0.818183H17.7273C17.9423 0.817553 18.1554 0.859449 18.3542 0.94146C18.553 1.02347 18.7337 1.14398 18.8858 1.29606C19.0378 1.44813 19.1583 1.62877 19.2404 1.82759C19.3224 2.0264 19.3643 2.23947 19.3636 2.45454V5.1818M15 9.54541V24.818M10.0909 9.54541L10.6364 24.818M19.9091 9.54541L19.3636 24.818" stroke="#58534E" stroke-linecap="round" stroke-linejoin="round"/>
</svg>
