<svg width="30" height="30" viewBox="0 0 30 30" fill="none" xmlns="http://www.w3.org/2000/svg">
<path d="M3.02136 25.0979L3.80976 19.6988C3.85782 19.3459 4.01888 19.0177 4.27085 18.7648L19.5466 3.48707C19.7443 3.28672 19.9905 3.14074 20.2613 3.06324C20.5321 2.98574 20.8183 2.97936 21.0922 3.04471C22.4946 3.43188 23.7657 4.1913 24.7706 5.24225C25.8199 6.25274 26.575 7.52876 26.9552 8.93421C27.0207 9.20784 27.0143 9.49371 26.9367 9.76415C26.8591 10.0346 26.7129 10.2804 26.5123 10.4779L11.2197 25.7362C10.9661 25.9872 10.6372 26.1485 10.2832 26.1954L4.87871 26.9828C4.62342 27.02 4.36294 26.9966 4.1184 26.9145C3.87386 26.8323 3.65214 26.6938 3.47124 26.51C3.29033 26.3263 3.15532 26.1026 3.07716 25.857C2.99899 25.6115 2.97988 25.351 3.02136 25.0966M16.6567 6.3929L23.6224 13.35" stroke="#58534E" stroke-linecap="round" stroke-linejoin="round"/>
</svg>
