<svg xmlns="http://www.w3.org/2000/svg" width="22" height="14" viewBox="0 0 22 14" fill="none">
  <path fill-rule="evenodd" clip-rule="evenodd" d="M11 12.8C15.034 12.8 18.686 10.55 20.648 7C18.686 3.45 15.034 1.2 11 1.2C6.966 1.2 3.314 3.45 1.352 7C3.314 10.55 6.966 12.8 11 12.8ZM11 0C15.808 0 19.972 2.848 22 7C19.972 11.152 15.808 14 11 14C6.192 14 2.028 11.152 0 7C2.028 2.848 6.192 0 11 0ZM11 9.8C11.7426 9.8 12.4548 9.505 12.9799 8.9799C13.505 8.4548 13.8 7.74261 13.8 7C13.8 6.25739 13.505 5.5452 12.9799 5.0201C12.4548 4.495 11.7426 4.2 11 4.2C10.2574 4.2 9.5452 4.495 9.0201 5.0201C8.495 5.5452 8.2 6.25739 8.2 7C8.2 7.74261 8.495 8.4548 9.0201 8.9799C9.5452 9.505 10.2574 9.8 11 9.8ZM11 11C9.93913 11 8.92172 10.5786 8.17157 9.82843C7.42143 9.07828 7 8.06087 7 7C7 5.93913 7.42143 4.92172 8.17157 4.17157C8.92172 3.42143 9.93913 3 11 3C12.0609 3 13.0783 3.42143 13.8284 4.17157C14.5786 4.92172 15 5.93913 15 7C15 8.06087 14.5786 9.07828 13.8284 9.82843C13.0783 10.5786 12.0609 11 11 11Z" fill="#827A74"/>
</svg>