<svg xmlns="http://www.w3.org/2000/svg" width="28" height="28" viewBox="0 0 28 28" fill="none">
  <path d="M3.23989 23.0806L3.94806 18.2249C3.99122 17.9076 4.13589 17.6124 4.36222 17.3849L18.0834 3.64507C18.261 3.46489 18.4821 3.3336 18.7253 3.26391C18.9686 3.19421 19.2256 3.18847 19.4717 3.24724C20.7314 3.59544 21.8732 4.27841 22.7757 5.22357C23.7183 6.13235 24.3965 7.27992 24.7381 8.5439C24.7968 8.78999 24.7911 9.04708 24.7214 9.29029C24.6517 9.53351 24.5204 9.75462 24.3402 9.93224L10.6039 23.6546C10.3761 23.8803 10.0807 24.0254 9.76272 24.0676L4.90822 24.7757C4.67891 24.8092 4.44494 24.7881 4.22528 24.7142C4.00563 24.6404 3.80648 24.5158 3.64398 24.3505C3.48148 24.1853 3.36021 23.9841 3.29001 23.7633C3.2198 23.5424 3.20263 23.3081 3.23989 23.0794M15.4876 6.2584L21.7444 12.5152" stroke="#58534E" stroke-linecap="round" stroke-linejoin="round"/>
</svg>