<svg xmlns="http://www.w3.org/2000/svg" width="36" height="25" viewBox="0 0 36 25" fill="none">
  <path d="M24.2756 0.775537L34.1082 10.4279C35.1023 11.4036 35.7449 12.671 35.9385 14.0378C36.132 15.4046 35.866 16.796 35.1808 18.0009C34.4956 19.2058 33.4286 20.1583 32.1418 20.7137C30.8551 21.2692 29.4188 21.3973 28.0511 21.0787V21.4424C28.0513 21.9095 27.9578 22.3721 27.7758 22.8037C27.5938 23.2353 27.327 23.6275 26.9906 23.9579C26.6542 24.2883 26.2548 24.5504 25.8152 24.7292C25.3756 24.908 24.9044 25 24.4286 25H20.2495V23.7837C20.2503 22.546 19.7508 21.3587 18.8608 20.4821C17.9707 19.6056 16.7627 19.1116 15.5019 19.1084H13.1169C12.8185 19.1084 12.5324 19.2248 12.3214 19.4319C12.1104 19.639 11.9919 19.9199 11.9919 20.2128C11.9919 20.5057 12.1104 20.7866 12.3214 20.9938C12.5324 21.2009 12.8185 21.3172 13.1169 21.3172H15.5019C16.8775 21.3172 18.001 22.4216 18.001 23.7822V24.9985H8.09783C7.6233 24.9983 7.15348 24.9061 6.7154 24.727C6.27732 24.5479 5.87963 24.2856 5.5452 23.9551C5.21076 23.6246 4.94619 23.2325 4.76669 22.8013C4.5872 22.37 4.49632 21.9082 4.49928 21.4424V16.8039C4.49928 16.4604 4.52078 16.1217 4.56379 15.7879C3.7704 15.8333 2.97964 15.6627 2.27883 15.2948C1.57801 14.9269 0.994386 14.376 0.592389 13.703C0.190391 13.03 -0.014346 12.261 0.000781554 11.481C0.0159091 10.701 0.250312 9.94022 0.678113 9.28273C1.10591 8.62524 1.71047 8.09657 2.42505 7.75511C3.13962 7.41365 3.93642 7.27267 4.72747 7.34773C5.51852 7.42279 6.27306 7.71097 6.90779 8.18046C7.54251 8.64996 8.03274 9.2825 8.32434 10.0083C9.61443 9.21722 11.1053 8.79877 12.6264 8.80078H19.9C20.9597 8.79874 22.0096 9.00086 22.99 9.39568C23.2855 8.90681 23.6471 8.49008 24.0701 8.06305L20.461 4.52016C20.2105 4.27429 20.0119 3.98239 19.8763 3.66114C19.7408 3.33988 19.671 2.99557 19.671 2.64785C19.671 1.9456 19.9552 1.27211 20.461 0.775537C20.9668 0.278969 21.6529 0 22.3683 0C23.0837 0 23.7697 0.278969 24.2756 0.775537Z" fill="#BDB7B2"/>
</svg>