<svg xmlns="http://www.w3.org/2000/svg" width="24" height="21" viewBox="0 0 24 21" fill="none">
  <path d="M22.7582 0.398768C22.5249 -0.113859 21.8581 -0.134364 21.5789 0.349556C20.2871 2.56 17.9744 3.93794 15.3325 3.93794H11.9989C7.58177 3.93794 3.9981 7.46481 3.9981 11.8119C3.9981 12.099 4.03144 12.3737 4.06061 12.6526C6.71919 10.7784 10.5571 9.18724 15.9992 9.18724C16.3659 9.18724 16.666 9.48251 16.666 9.8434C16.666 10.2043 16.3659 10.4996 15.9992 10.4996C5.52324 10.4996 1.08116 16.8192 0.0977295 19.1937C-0.177297 19.8622 0.147734 20.625 0.826965 20.8997C1.51036 21.1786 2.28544 20.8546 2.5688 20.1903C2.6313 20.0426 3.43971 18.2259 5.56492 16.4747C6.91504 18.2751 9.48195 19.9934 12.8531 19.6407C19.3954 19.1732 24 13.399 24 6.32883C24 4.27012 23.55 2.1376 22.7582 0.398768Z" fill="#FFF"/>
</svg>