<svg xmlns="http://www.w3.org/2000/svg" width="25" height="24" viewBox="0 0 25 24" fill="none">
  <path d="M5.46875 5.25L6.44531 20.25C6.4917 21.1167 7.14844 21.75 8.00781 21.75H16.9922C17.855 21.75 18.4995 21.1167 18.5547 20.25L19.5312 5.25" stroke="#58534E" stroke-linecap="round" stroke-linejoin="round"/>
  <path d="M3.90625 5.25H21.0938H3.90625Z" fill="black"/>
  <path d="M3.90625 5.25H21.0938" stroke="#58534E" stroke-miterlimit="10" stroke-linecap="round"/>
  <path d="M9.375 5.25V3.375C9.37455 3.22715 9.40455 3.08066 9.46328 2.94397C9.52202 2.80729 9.60832 2.6831 9.71723 2.57854C9.82614 2.47399 9.9555 2.39114 10.0979 2.33476C10.2403 2.27838 10.3929 2.24957 10.5469 2.25H14.4531C14.6071 2.24957 14.7597 2.27838 14.9021 2.33476C15.0445 2.39114 15.1739 2.47399 15.2828 2.57854C15.3917 2.6831 15.478 2.80729 15.5367 2.94397C15.5954 3.08066 15.6255 3.22715 15.625 3.375V5.25M12.5 8.25001V18.75M8.98438 8.25001L9.375 18.75M16.0156 8.25001L15.625 18.75" stroke="#58534E" stroke-linecap="round" stroke-linejoin="round"/>
</svg>