<svg xmlns="http://www.w3.org/2000/svg" width="36" height="24" viewBox="0 0 36 24" fill="none">
  <path d="M16.0783 0C12.8306 0 10.5159 0.984 8.85224 2.64C7.2306 4.257 6.33653 6.411 5.69297 8.538L4.64589 12.003H1.12509C0.8267 12.003 0.540528 12.1215 0.329532 12.3325C0.118536 12.5435 0 12.8296 0 13.128C0 15.1425 1.1446 16.8525 2.80823 17.778L1.92616 19.926C1.74206 20.374 1.67102 20.8604 1.71931 21.3423C1.7676 21.8242 1.93374 22.2869 2.20307 22.6894C2.47241 23.092 2.83666 23.4221 3.26372 23.6507C3.69077 23.8792 4.16751 23.9992 4.65189 24H7.94316C9.08626 24 10.1258 23.3385 10.6119 22.305L11.671 20.049C14.6262 20.4585 17.625 20.463 20.5817 20.064L21.6333 22.3035C21.8717 22.81 22.2492 23.2384 22.7216 23.5387C23.1941 23.8391 23.7422 23.999 24.302 24H27.5603C28.0451 24.0003 28.5224 23.881 28.9501 23.6528C29.3778 23.4245 29.7425 23.0943 30.0121 22.6914C30.2816 22.2885 30.4477 21.8254 30.4955 21.343C30.5432 20.8606 30.4713 20.3739 30.286 19.926L29.494 18H32.9997C34.5179 18 36 16.8255 36 15.171V13.5C36 10.9425 33.7798 9.0045 31.2266 9.0045H26.8012L26.6617 8.5395C26.0122 6.3915 25.0656 4.2405 23.393 2.6295C21.6843 0.981 19.3276 0 16.0783 0ZM28.8444 15.75L27.4838 11.253H31.2266C32.7042 11.253 33.7498 12.345 33.7498 13.4985V15.1695C33.7498 15.3735 33.4948 15.7485 32.9997 15.7485L28.8444 15.75ZM22.8814 19.6695C24.3615 19.3604 25.8185 18.9499 27.2423 18.441L28.2054 20.781C28.2491 20.8873 28.266 21.0027 28.2547 21.1171C28.2434 21.2315 28.2042 21.3413 28.1405 21.437C28.0768 21.5327 27.9906 21.6112 27.8894 21.6658C27.7883 21.7204 27.6752 21.7493 27.5603 21.75H24.302C24.1696 21.749 24.0402 21.7108 23.9285 21.6397C23.8168 21.5686 23.7274 21.4675 23.6705 21.348L22.8814 19.6695ZM5.29244 18.504C6.63555 18.975 7.99567 19.356 9.37278 19.647L8.57471 21.348C8.51792 21.4673 8.42874 21.5683 8.31734 21.6393C8.20594 21.7104 8.0768 21.7488 7.94466 21.75H4.65039C4.53563 21.7492 4.42282 21.7203 4.32183 21.6658C4.22084 21.6113 4.13475 21.5329 4.07109 21.4374C4.00743 21.3419 3.96815 21.2323 3.95669 21.1181C3.94523 21.004 3.96193 20.8887 4.00533 20.7825L4.95491 18.4725C5.06592 18.4865 5.17793 18.497 5.29094 18.504M3.96483 14.2515L3.5583 15.597C3.08221 15.2555 2.70869 14.7902 2.47821 14.2515H3.96483Z" fill="#BDB7B2"/>
</svg>